<?xml version="1.0" standalone="no"?>
<!DOCTYPE svg PUBLIC "-//W3C//DTD SVG 20010904//EN"
 "http://www.w3.org/TR/2001/REC-SVG-20010904/DTD/svg10.dtd">
<svg version="1.0" xmlns="http://www.w3.org/2000/svg"
 width="1500.000000pt" height="1500.000000pt" viewBox="0 0 1500.000000 1500.000000"
 preserveAspectRatio="xMidYMid meet">
<metadata>
Created by potrace 1.11, written by Peter Selinger 2001-2013
</metadata>
<g transform="translate(0.000000,1500.000000) scale(0.100000,-0.100000)"
fill="#000000" stroke="none">
<path d="M7118 14395 c-2 -1 -57 -6 -123 -9 -66 -3 -129 -8 -140 -10 -11 -2
-60 -7 -109 -11 -49 -4 -98 -8 -110 -10 -11 -2 -43 -6 -71 -10 -27 -3 -90 -12
-140 -20 -49 -7 -110 -17 -135 -20 -155 -23 -559 -115 -750 -171 -208 -62
-577 -189 -675 -233 -11 -5 -90 -40 -175 -77 -251 -110 -548 -263 -762 -393
-14 -9 -57 -35 -95 -57 -191 -117 -536 -363 -723 -518 -53 -44 -253 -217 -294
-255 -73 -68 -386 -382 -420 -422 -16 -19 -48 -54 -70 -79 -78 -87 -102 -116
-191 -225 -215 -265 -434 -583 -604 -875 -173 -297 -390 -753 -488 -1025 -151
-423 -239 -735 -313 -1115 -5 -30 -12 -66 -15 -80 -3 -14 -7 -41 -10 -60 -3
-19 -7 -44 -9 -56 -2 -12 -7 -45 -11 -74 -4 -29 -8 -62 -11 -73 -2 -10 -6 -45
-9 -76 -4 -31 -8 -63 -10 -71 -2 -8 -7 -51 -11 -95 -3 -44 -8 -93 -10 -110
-26 -246 -26 -980 1 -1190 2 -16 7 -61 10 -100 3 -38 8 -81 10 -95 2 -14 6
-46 9 -72 3 -27 9 -69 12 -95 11 -89 74 -438 95 -523 11 -47 22 -94 24 -105 2
-11 6 -29 9 -40 3 -11 17 -64 31 -118 126 -485 351 -1057 578 -1472 128 -232
173 -308 306 -515 57 -89 219 -318 290 -410 60 -78 241 -300 266 -326 5 -6 37
-42 70 -80 95 -110 380 -396 499 -502 60 -53 114 -102 121 -109 6 -6 41 -35
76 -64 35 -29 66 -56 69 -59 3 -3 45 -37 95 -75 49 -39 97 -75 105 -82 61 -50
323 -233 432 -303 290 -184 629 -368 903 -489 66 -29 134 -59 150 -66 276
-121 839 -302 1120 -359 11 -3 65 -14 120 -25 158 -33 231 -47 295 -56 14 -2
57 -9 95 -15 39 -6 86 -13 105 -15 19 -1 58 -6 85 -10 90 -12 109 -14 195 -20
47 -4 99 -8 115 -10 75 -9 358 -18 530 -18 281 1 640 22 805 48 14 2 52 7 85
11 33 3 69 8 80 10 11 3 38 7 60 9 22 3 63 10 90 15 28 6 64 12 80 15 129 17
570 122 740 175 219 69 403 132 495 170 25 10 92 37 150 60 228 92 550 249
795 390 264 152 636 404 845 574 25 20 50 39 55 44 12 8 203 172 254 217 187
164 491 476 636 650 28 33 52 62 55 65 9 8 122 149 176 220 61 79 234 319 234
324 0 2 29 46 64 97 65 97 216 345 216 356 0 4 6 14 14 22 22 25 220 416 287
568 106 239 266 665 300 798 4 17 26 95 48 175 23 80 43 154 46 165 2 11 6 29
9 40 22 93 57 255 62 293 3 26 8 50 10 53 2 4 6 24 10 45 7 48 12 83 18 110 8
39 15 90 31 215 9 68 18 140 20 159 3 19 7 69 10 110 4 41 8 91 10 110 21 210
21 876 0 1020 -2 14 -6 61 -10 105 -7 87 -10 120 -25 240 -16 133 -21 168 -30
220 -5 28 -12 66 -15 85 -7 46 -17 100 -22 125 -17 85 -24 124 -29 150 -3 17
-12 57 -21 90 -8 33 -17 71 -20 85 -2 14 -13 59 -24 100 -11 41 -27 98 -34
125 -51 192 -180 574 -240 710 -7 17 -25 59 -40 95 -14 36 -37 89 -51 118 -13
29 -24 55 -24 57 0 11 -165 340 -227 455 -407 741 -942 1397 -1588 1947 -453
385 -999 734 -1550 988 -337 156 -770 313 -1075 390 -159 40 -291 72 -317 77
-5 1 -24 5 -43 10 -54 13 -121 26 -170 33 -25 3 -52 8 -60 10 -14 4 -57 12
-110 20 -14 2 -43 6 -65 10 -22 3 -53 7 -70 9 -16 2 -52 7 -80 11 -90 12 -109
14 -170 20 -33 3 -85 8 -115 11 -30 3 -86 8 -125 11 -79 5 -772 13 -777 8z"/>
</g>
</svg>
